<?xml version="1.0" encoding="iso-8859-1"?>
<!-- Generator: Adobe Illustrator 18.0.0, SVG Export Plug-In . SVG Version: 6.00 Build 0)  -->
<!DOCTYPE svg PUBLIC "-//W3C//DTD SVG 1.1//EN" "http://www.w3.org/Graphics/SVG/1.1/DTD/svg11.dtd">
<svg xmlns="http://www.w3.org/2000/svg" xmlns:xlink="http://www.w3.org/1999/xlink" version="1.1" id="Capa_1" x="0px" y="0px" viewBox="0 0 479.4 479.4" style="enable-background:new 0 0 479.4 479.4;" xml:space="preserve" width="512px" height="512px">
<g>
	<path d="M209.777,316.129h-44.69c-9.443,0-17.126-7.683-17.126-17.126V153.891c0-12.886-10.484-23.37-23.37-23.37   s-23.37,10.484-23.37,23.37v55.243c-3.127-1.555-6.647-2.435-10.37-2.435c-7.995,0-15.063,4.038-19.279,10.179   c-3.982-3.147-9.004-5.032-14.462-5.032c-12.886,0-23.37,10.484-23.37,23.37v2.212c-3.127-1.555-6.647-2.435-10.37-2.435   c-12.886,0-23.37,10.484-23.37,23.37v63.452c0,25.588,8.875,50.626,24.991,70.502c1.285,1.584,3.161,2.406,5.053,2.406   c1.438,0,2.886-0.475,4.09-1.451c2.789-2.261,3.216-6.354,0.955-9.143C20.845,366.562,13,344.432,13,321.815v-63.452   c0-5.718,4.652-10.37,10.37-10.37s10.37,4.652,10.37,10.37v22.362c0,3.59,2.91,6.5,6.5,6.5s6.5-2.91,6.5-6.5v-45.51   c0-5.718,4.652-10.37,10.37-10.37s10.37,4.652,10.37,10.37v38.448c0,3.59,2.91,6.5,6.5,6.5s6.5-2.91,6.5-6.5v-43.596   c0-5.718,4.652-10.37,10.37-10.37s10.37,4.652,10.37,10.37v49.088c0,3.59,2.91,6.5,6.5,6.5s6.5-2.91,6.5-6.5V153.891   c0-5.718,4.652-10.37,10.37-10.37s10.37,4.652,10.37,10.37v145.112c0,16.612,13.515,30.126,30.126,30.126h44.69   c7.177,0,13.015,5.838,13.015,13.015c0,7.177-5.838,13.015-13.015,13.015h-21.15c-14.235,0-28.301,4.765-39.606,13.417   c-9.049,6.926-20.309,10.74-31.705,10.74h-9.578c-3.59,0-6.5,2.91-6.5,6.5s2.91,6.5,6.5,6.5h9.578   c14.236,0,28.302-4.765,39.606-13.417c9.05-6.926,20.31-10.74,31.705-10.74h21.15c14.345,0,26.015-11.67,26.015-26.015   S224.122,316.129,209.777,316.129z" fill="#FFFFFF"/>
	<path d="M456.03,234.993c-3.723,0-7.243,0.88-10.37,2.435v-2.212c0-12.886-10.484-23.37-23.37-23.37   c-5.457,0-10.48,1.885-14.462,5.032c-4.215-6.142-11.283-10.179-19.279-10.179c-3.723,0-7.243,0.879-10.37,2.435v-55.243   c0-12.886-10.484-23.37-23.37-23.37s-23.37,10.484-23.37,23.37v145.112c0,9.443-7.683,17.126-17.126,17.126h-44.69   c-14.345,0-26.015,11.67-26.015,26.015s11.67,26.015,26.015,26.015h21.15c11.396,0,22.656,3.814,31.705,10.74   c11.305,8.652,25.371,13.417,39.606,13.417h9.578c3.59,0,6.5-2.91,6.5-6.5s-2.91-6.5-6.5-6.5h-9.578   c-11.396,0-22.656-3.814-31.705-10.74c-11.305-8.652-25.37-13.417-39.606-13.417h-21.15c-7.177,0-13.015-5.838-13.015-13.015   c0-7.176,5.838-13.015,13.015-13.015h44.69c16.612,0,30.126-13.515,30.126-30.126V153.891c0-5.718,4.652-10.37,10.37-10.37   s10.37,4.652,10.37,10.37v125.266c0,3.59,2.91,6.5,6.5,6.5s6.5-2.91,6.5-6.5v-49.088c0-5.718,4.652-10.37,10.37-10.37   s10.37,4.652,10.37,10.37v43.596c0,3.59,2.91,6.5,6.5,6.5s6.5-2.91,6.5-6.5v-38.448c0-5.718,4.652-10.37,10.37-10.37   s10.37,4.652,10.37,10.37v45.51c0,3.59,2.91,6.5,6.5,6.5s6.5-2.91,6.5-6.5v-22.362c0-5.718,4.652-10.37,10.37-10.37   s10.37,4.652,10.37,10.37v63.452c0,22.617-7.845,44.747-22.088,62.315c-2.261,2.789-1.833,6.882,0.955,9.143   c1.205,0.977,2.651,1.452,4.09,1.451c1.892,0,3.769-0.822,5.053-2.406c16.116-19.876,24.991-44.915,24.991-70.502v-63.452   C479.4,245.477,468.916,234.993,456.03,234.993z" fill="#FFFFFF"/>
	<path d="M301.244,97.676h11.51v11.43c0,3.59,2.91,6.5,6.5,6.5s6.5-2.91,6.5-6.5v-17.93c0-3.59-2.91-6.5-6.5-6.5h-18.01   c-3.59,0-6.5,2.91-6.5,6.5S297.654,97.676,301.244,97.676z" fill="#FFFFFF"/>
	<path d="M163.923,205.676h18.01c3.59,0,6.5-2.91,6.5-6.5s-2.91-6.5-6.5-6.5h-11.51v-11.42c0-3.59-2.91-6.5-6.5-6.5   s-6.5,2.91-6.5,6.5v17.92C157.423,202.766,160.333,205.676,163.923,205.676z" fill="#FFFFFF"/>
	<path d="M301.244,205.676h18.01c3.59,0,6.5-2.91,6.5-6.5v-17.92c0-3.59-2.91-6.5-6.5-6.5s-6.5,2.91-6.5,6.5v11.42h-11.51   c-3.59,0-6.5,2.91-6.5,6.5S297.654,205.676,301.244,205.676z" fill="#FFFFFF"/>
	<path d="M163.923,115.606c3.59,0,6.5-2.91,6.5-6.5v-11.43h11.51c3.59,0,6.5-2.91,6.5-6.5s-2.91-6.5-6.5-6.5h-18.01   c-3.59,0-6.5,2.91-6.5,6.5v17.93C157.423,112.696,160.333,115.606,163.923,115.606z" fill="#FFFFFF"/>
	<path d="M264.088,145.176c0-12.407-10.093-22.5-22.5-22.5s-22.5,10.093-22.5,22.5s10.093,22.5,22.5,22.5   S264.088,157.583,264.088,145.176z M241.588,154.676c-5.238,0-9.5-4.262-9.5-9.5s4.262-9.5,9.5-9.5s9.5,4.262,9.5,9.5   S246.827,154.676,241.588,154.676z" fill="#FFFFFF"/>
</g>
<g>
</g>
<g>
</g>
<g>
</g>
<g>
</g>
<g>
</g>
<g>
</g>
<g>
</g>
<g>
</g>
<g>
</g>
<g>
</g>
<g>
</g>
<g>
</g>
<g>
</g>
<g>
</g>
<g>
</g>
</svg>
